<mxfile host="app.diagrams.net" modified="2023-07-07T19:43:55.529Z" agent="Mozilla/5.0 (Macintosh; Intel Mac OS X 10_15_7) AppleWebKit/537.36 (KHTML, like Gecko) Chrome/114.0.0.0 Safari/537.36" etag="4DQ1HdWNvApKV6r8f9ot" version="21.4.0" type="device">
  <diagram name="Page-1" id="hZcHKNcVIxLBWbeSLt7d">
    <mxGraphModel dx="2605" dy="1026" grid="1" gridSize="10" guides="1" tooltips="1" connect="1" arrows="1" fold="1" page="1" pageScale="1" pageWidth="827" pageHeight="1169" math="0" shadow="0">
      <root>
        <mxCell id="0" />
        <mxCell id="1" parent="0" />
        <mxCell id="SECbUfsUw7zMmMJkthY5-82" value="" style="rounded=0;whiteSpace=wrap;html=1;fillColor=#d5e8d4;strokeColor=#82b366;" vertex="1" parent="1">
          <mxGeometry x="440" y="730" width="330" height="430" as="geometry" />
        </mxCell>
        <mxCell id="SECbUfsUw7zMmMJkthY5-5" style="edgeStyle=orthogonalEdgeStyle;rounded=0;orthogonalLoop=1;jettySize=auto;html=1;" edge="1" parent="1" source="SECbUfsUw7zMmMJkthY5-1" target="SECbUfsUw7zMmMJkthY5-4">
          <mxGeometry relative="1" as="geometry">
            <Array as="points">
              <mxPoint x="-99" y="90" />
            </Array>
          </mxGeometry>
        </mxCell>
        <mxCell id="SECbUfsUw7zMmMJkthY5-6" value="PoE" style="edgeLabel;html=1;align=center;verticalAlign=middle;resizable=0;points=[];" vertex="1" connectable="0" parent="SECbUfsUw7zMmMJkthY5-5">
          <mxGeometry x="0.3603" relative="1" as="geometry">
            <mxPoint as="offset" />
          </mxGeometry>
        </mxCell>
        <mxCell id="SECbUfsUw7zMmMJkthY5-10" style="edgeStyle=orthogonalEdgeStyle;rounded=0;orthogonalLoop=1;jettySize=auto;html=1;" edge="1" parent="1" source="SECbUfsUw7zMmMJkthY5-1" target="SECbUfsUw7zMmMJkthY5-9">
          <mxGeometry relative="1" as="geometry" />
        </mxCell>
        <mxCell id="SECbUfsUw7zMmMJkthY5-11" value="PoE" style="edgeLabel;html=1;align=center;verticalAlign=middle;resizable=0;points=[];" vertex="1" connectable="0" parent="SECbUfsUw7zMmMJkthY5-10">
          <mxGeometry x="0.3343" y="-1" relative="1" as="geometry">
            <mxPoint as="offset" />
          </mxGeometry>
        </mxCell>
        <mxCell id="SECbUfsUw7zMmMJkthY5-15" style="edgeStyle=orthogonalEdgeStyle;rounded=0;orthogonalLoop=1;jettySize=auto;html=1;exitX=0;exitY=0.5;exitDx=0;exitDy=0;exitPerimeter=0;" edge="1" parent="1" source="SECbUfsUw7zMmMJkthY5-1" target="SECbUfsUw7zMmMJkthY5-13">
          <mxGeometry relative="1" as="geometry" />
        </mxCell>
        <mxCell id="SECbUfsUw7zMmMJkthY5-16" style="edgeStyle=orthogonalEdgeStyle;rounded=0;orthogonalLoop=1;jettySize=auto;html=1;entryX=0.983;entryY=0.388;entryDx=0;entryDy=0;entryPerimeter=0;" edge="1" parent="1" source="SECbUfsUw7zMmMJkthY5-1" target="SECbUfsUw7zMmMJkthY5-14">
          <mxGeometry relative="1" as="geometry" />
        </mxCell>
        <mxCell id="SECbUfsUw7zMmMJkthY5-1" value="Ubiquiti -&amp;nbsp;&lt;br&gt;Dream Machine Special Edition&lt;br&gt;" style="fontColor=#0066CC;verticalAlign=top;verticalLabelPosition=bottom;labelPosition=center;align=center;html=1;outlineConnect=0;fillColor=#CCCCCC;strokeColor=#6881B3;gradientColor=none;gradientDirection=north;strokeWidth=2;shape=mxgraph.networks.switch;" vertex="1" parent="1">
          <mxGeometry x="-149" y="160" width="100" height="30" as="geometry" />
        </mxCell>
        <mxCell id="SECbUfsUw7zMmMJkthY5-8" style="edgeStyle=orthogonalEdgeStyle;rounded=0;orthogonalLoop=1;jettySize=auto;html=1;" edge="1" parent="1" source="SECbUfsUw7zMmMJkthY5-4" target="SECbUfsUw7zMmMJkthY5-7">
          <mxGeometry relative="1" as="geometry" />
        </mxCell>
        <mxCell id="SECbUfsUw7zMmMJkthY5-4" value="Ubiquiti -&amp;nbsp;&lt;br&gt;Switch Flex Mini" style="fontColor=#0066CC;verticalAlign=top;verticalLabelPosition=bottom;labelPosition=center;align=center;html=1;outlineConnect=0;fillColor=#CCCCCC;strokeColor=#6881B3;gradientColor=none;gradientDirection=north;strokeWidth=2;shape=mxgraph.networks.switch;" vertex="1" parent="1">
          <mxGeometry x="88" y="80" width="66.67" height="20" as="geometry" />
        </mxCell>
        <mxCell id="SECbUfsUw7zMmMJkthY5-7" value="Ubiquti -&amp;nbsp;&lt;br&gt;Camera G4 Pro" style="fontColor=#0066CC;verticalAlign=top;verticalLabelPosition=bottom;labelPosition=center;align=center;html=1;outlineConnect=0;fillColor=#CCCCCC;strokeColor=#6881B3;gradientColor=none;gradientDirection=north;strokeWidth=2;shape=mxgraph.networks.security_camera;" vertex="1" parent="1">
          <mxGeometry x="241" y="72.5" width="46.67" height="35" as="geometry" />
        </mxCell>
        <mxCell id="SECbUfsUw7zMmMJkthY5-9" value="Ubiquiti -&amp;nbsp;&lt;br&gt;Access point U6 Pro" style="image;points=[];aspect=fixed;html=1;align=center;shadow=0;dashed=0;image=img/lib/allied_telesis/wireless/Access_Point_Outdoor.svg;" vertex="1" parent="1">
          <mxGeometry x="108.43" y="160" width="25.8" height="99.6" as="geometry" />
        </mxCell>
        <mxCell id="SECbUfsUw7zMmMJkthY5-13" value="Nuc iOT - backend" style="image;sketch=0;aspect=fixed;html=1;points=[];align=center;fontSize=12;image=img/lib/mscae/VM_Linux_Non_Azure.svg;" vertex="1" parent="1">
          <mxGeometry x="-289" y="110" width="54.35" height="50" as="geometry" />
        </mxCell>
        <mxCell id="SECbUfsUw7zMmMJkthY5-14" value="Nuc iOT - postgresql" style="image;sketch=0;aspect=fixed;html=1;points=[];align=center;fontSize=12;image=img/lib/mscae/VM_Linux_Non_Azure.svg;" vertex="1" parent="1">
          <mxGeometry x="-289" y="200.00000000000003" width="54.35" height="50" as="geometry" />
        </mxCell>
        <mxCell id="SECbUfsUw7zMmMJkthY5-25" style="edgeStyle=orthogonalEdgeStyle;rounded=0;orthogonalLoop=1;jettySize=auto;html=1;" edge="1" parent="1" source="SECbUfsUw7zMmMJkthY5-17" target="SECbUfsUw7zMmMJkthY5-13">
          <mxGeometry relative="1" as="geometry" />
        </mxCell>
        <mxCell id="SECbUfsUw7zMmMJkthY5-17" value="ESP32&lt;br&gt;temperature sensor&lt;br&gt;" style="dashed=0;outlineConnect=0;html=1;align=center;labelPosition=center;verticalLabelPosition=bottom;verticalAlign=top;shape=mxgraph.weblogos.arduino;fillColor=#36868D;strokeColor=none" vertex="1" parent="1">
          <mxGeometry x="-449" y="10" width="67.4" height="32" as="geometry" />
        </mxCell>
        <mxCell id="SECbUfsUw7zMmMJkthY5-26" style="edgeStyle=orthogonalEdgeStyle;rounded=0;orthogonalLoop=1;jettySize=auto;html=1;entryX=-0.007;entryY=0.512;entryDx=0;entryDy=0;entryPerimeter=0;" edge="1" parent="1" source="SECbUfsUw7zMmMJkthY5-19" target="SECbUfsUw7zMmMJkthY5-13">
          <mxGeometry relative="1" as="geometry" />
        </mxCell>
        <mxCell id="SECbUfsUw7zMmMJkthY5-19" value="ESP32&lt;br style=&quot;border-color: var(--border-color);&quot;&gt;temperature sensor" style="dashed=0;outlineConnect=0;html=1;align=center;labelPosition=center;verticalLabelPosition=bottom;verticalAlign=top;shape=mxgraph.weblogos.arduino;fillColor=#36868D;strokeColor=none" vertex="1" parent="1">
          <mxGeometry x="-449" y="119" width="67.4" height="32" as="geometry" />
        </mxCell>
        <mxCell id="SECbUfsUw7zMmMJkthY5-27" style="edgeStyle=orthogonalEdgeStyle;rounded=0;orthogonalLoop=1;jettySize=auto;html=1;" edge="1" parent="1" source="SECbUfsUw7zMmMJkthY5-33" target="SECbUfsUw7zMmMJkthY5-35">
          <mxGeometry relative="1" as="geometry">
            <Array as="points">
              <mxPoint x="63" y="437.5" />
            </Array>
          </mxGeometry>
        </mxCell>
        <mxCell id="SECbUfsUw7zMmMJkthY5-28" value="PoE" style="edgeLabel;html=1;align=center;verticalAlign=middle;resizable=0;points=[];" vertex="1" connectable="0" parent="SECbUfsUw7zMmMJkthY5-27">
          <mxGeometry x="0.3603" relative="1" as="geometry">
            <mxPoint as="offset" />
          </mxGeometry>
        </mxCell>
        <mxCell id="SECbUfsUw7zMmMJkthY5-29" style="edgeStyle=orthogonalEdgeStyle;rounded=0;orthogonalLoop=1;jettySize=auto;html=1;" edge="1" parent="1" source="SECbUfsUw7zMmMJkthY5-33" target="SECbUfsUw7zMmMJkthY5-37">
          <mxGeometry relative="1" as="geometry" />
        </mxCell>
        <mxCell id="SECbUfsUw7zMmMJkthY5-30" value="PoE" style="edgeLabel;html=1;align=center;verticalAlign=middle;resizable=0;points=[];" vertex="1" connectable="0" parent="SECbUfsUw7zMmMJkthY5-29">
          <mxGeometry x="0.3343" y="-1" relative="1" as="geometry">
            <mxPoint as="offset" />
          </mxGeometry>
        </mxCell>
        <mxCell id="SECbUfsUw7zMmMJkthY5-46" style="edgeStyle=orthogonalEdgeStyle;rounded=0;orthogonalLoop=1;jettySize=auto;html=1;startArrow=classic;startFill=1;" edge="1" parent="1" source="SECbUfsUw7zMmMJkthY5-33" target="SECbUfsUw7zMmMJkthY5-45">
          <mxGeometry relative="1" as="geometry" />
        </mxCell>
        <mxCell id="SECbUfsUw7zMmMJkthY5-51" value="&lt;br&gt;" style="edgeLabel;html=1;align=center;verticalAlign=middle;resizable=0;points=[];" vertex="1" connectable="0" parent="SECbUfsUw7zMmMJkthY5-46">
          <mxGeometry x="0.3046" y="-1" relative="1" as="geometry">
            <mxPoint as="offset" />
          </mxGeometry>
        </mxCell>
        <mxCell id="SECbUfsUw7zMmMJkthY5-52" value="VPN connection&lt;br&gt;250Mbit" style="edgeLabel;html=1;align=center;verticalAlign=middle;resizable=0;points=[];" vertex="1" connectable="0" parent="SECbUfsUw7zMmMJkthY5-46">
          <mxGeometry x="0.0387" relative="1" as="geometry">
            <mxPoint as="offset" />
          </mxGeometry>
        </mxCell>
        <mxCell id="SECbUfsUw7zMmMJkthY5-59" value="PoE" style="edgeStyle=orthogonalEdgeStyle;rounded=0;orthogonalLoop=1;jettySize=auto;html=1;exitX=1;exitY=0.5;exitDx=0;exitDy=0;exitPerimeter=0;entryX=-0.024;entryY=0.516;entryDx=0;entryDy=0;entryPerimeter=0;" edge="1" parent="1" source="SECbUfsUw7zMmMJkthY5-33" target="SECbUfsUw7zMmMJkthY5-60">
          <mxGeometry relative="1" as="geometry">
            <mxPoint x="140" y="737.5" as="targetPoint" />
          </mxGeometry>
        </mxCell>
        <mxCell id="SECbUfsUw7zMmMJkthY5-33" value="Ubiquiti -&amp;nbsp;&lt;br&gt;Dream Router" style="fontColor=#0066CC;verticalAlign=top;verticalLabelPosition=bottom;labelPosition=center;align=center;html=1;outlineConnect=0;fillColor=#CCCCCC;strokeColor=#6881B3;gradientColor=none;gradientDirection=north;strokeWidth=2;shape=mxgraph.networks.switch;" vertex="1" parent="1">
          <mxGeometry x="13.329999999999998" y="507.5" width="100" height="30" as="geometry" />
        </mxCell>
        <mxCell id="SECbUfsUw7zMmMJkthY5-34" style="edgeStyle=orthogonalEdgeStyle;rounded=0;orthogonalLoop=1;jettySize=auto;html=1;" edge="1" parent="1" source="SECbUfsUw7zMmMJkthY5-35" target="SECbUfsUw7zMmMJkthY5-36">
          <mxGeometry relative="1" as="geometry" />
        </mxCell>
        <mxCell id="SECbUfsUw7zMmMJkthY5-35" value="Ubiquiti -&amp;nbsp;&lt;br&gt;Switch Flex Mini" style="fontColor=#0066CC;verticalAlign=top;verticalLabelPosition=bottom;labelPosition=center;align=center;html=1;outlineConnect=0;fillColor=#CCCCCC;strokeColor=#6881B3;gradientColor=none;gradientDirection=north;strokeWidth=2;shape=mxgraph.networks.switch;" vertex="1" parent="1">
          <mxGeometry x="250.32999999999998" y="427.5" width="66.67" height="20" as="geometry" />
        </mxCell>
        <mxCell id="SECbUfsUw7zMmMJkthY5-36" value="Ubiquti -&amp;nbsp;&lt;br&gt;Camera G4 Pro" style="fontColor=#0066CC;verticalAlign=top;verticalLabelPosition=bottom;labelPosition=center;align=center;html=1;outlineConnect=0;fillColor=#CCCCCC;strokeColor=#6881B3;gradientColor=none;gradientDirection=north;strokeWidth=2;shape=mxgraph.networks.security_camera;" vertex="1" parent="1">
          <mxGeometry x="403.33" y="420" width="46.67" height="35" as="geometry" />
        </mxCell>
        <mxCell id="SECbUfsUw7zMmMJkthY5-37" value="Ubiquiti -&amp;nbsp;&lt;br&gt;Access point U6 Pro&lt;br&gt;Indoor" style="image;points=[];aspect=fixed;html=1;align=center;shadow=0;dashed=0;image=img/lib/allied_telesis/wireless/Access_Point_Outdoor.svg;" vertex="1" parent="1">
          <mxGeometry x="600.4300000000001" y="574.4" width="25.8" height="99.6" as="geometry" />
        </mxCell>
        <mxCell id="SECbUfsUw7zMmMJkthY5-48" value="10GbE" style="edgeStyle=orthogonalEdgeStyle;rounded=0;orthogonalLoop=1;jettySize=auto;html=1;entryX=1;entryY=0.5;entryDx=0;entryDy=0;entryPerimeter=0;startArrow=classic;startFill=1;" edge="1" parent="1" source="SECbUfsUw7zMmMJkthY5-45" target="SECbUfsUw7zMmMJkthY5-47">
          <mxGeometry relative="1" as="geometry" />
        </mxCell>
        <mxCell id="SECbUfsUw7zMmMJkthY5-45" value="Supermicro firewall" style="fontColor=#0066CC;verticalAlign=top;verticalLabelPosition=bottom;labelPosition=center;align=center;html=1;outlineConnect=0;fillColor=#CCCCCC;strokeColor=#6881B3;gradientColor=none;gradientDirection=north;strokeWidth=2;shape=mxgraph.networks.switch;" vertex="1" parent="1">
          <mxGeometry x="-300" y="506.25" width="100" height="30" as="geometry" />
        </mxCell>
        <mxCell id="SECbUfsUw7zMmMJkthY5-55" style="rounded=0;orthogonalLoop=1;jettySize=auto;html=1;" edge="1" parent="1" source="SECbUfsUw7zMmMJkthY5-47" target="SECbUfsUw7zMmMJkthY5-53">
          <mxGeometry relative="1" as="geometry" />
        </mxCell>
        <mxCell id="SECbUfsUw7zMmMJkthY5-57" style="rounded=0;orthogonalLoop=1;jettySize=auto;html=1;" edge="1" parent="1" source="SECbUfsUw7zMmMJkthY5-47" target="SECbUfsUw7zMmMJkthY5-49">
          <mxGeometry relative="1" as="geometry" />
        </mxCell>
        <mxCell id="SECbUfsUw7zMmMJkthY5-58" style="edgeStyle=orthogonalEdgeStyle;rounded=0;orthogonalLoop=1;jettySize=auto;html=1;" edge="1" parent="1" source="SECbUfsUw7zMmMJkthY5-47" target="SECbUfsUw7zMmMJkthY5-50">
          <mxGeometry relative="1" as="geometry" />
        </mxCell>
        <mxCell id="SECbUfsUw7zMmMJkthY5-47" value="Ubiquiti -&amp;nbsp;&lt;br&gt;Dream Machine Special Edition&lt;br&gt;" style="fontColor=#0066CC;verticalAlign=top;verticalLabelPosition=bottom;labelPosition=center;align=center;html=1;outlineConnect=0;fillColor=#CCCCCC;strokeColor=#6881B3;gradientColor=none;gradientDirection=north;strokeWidth=2;shape=mxgraph.networks.switch;" vertex="1" parent="1">
          <mxGeometry x="-480" y="506.25" width="100" height="30" as="geometry" />
        </mxCell>
        <mxCell id="SECbUfsUw7zMmMJkthY5-49" value="iOT Server" style="image;sketch=0;aspect=fixed;html=1;points=[];align=center;fontSize=12;image=img/lib/mscae/VM_Linux_Non_Azure.svg;" vertex="1" parent="1">
          <mxGeometry x="-330" y="376.25" width="54.35" height="50" as="geometry" />
        </mxCell>
        <mxCell id="SECbUfsUw7zMmMJkthY5-50" value="Postgresql" style="image;sketch=0;aspect=fixed;html=1;points=[];align=center;fontSize=12;image=img/lib/mscae/Azure_Database_for_PostgreSQL_servers.svg;" vertex="1" parent="1">
          <mxGeometry x="-449" y="338.75" width="38" height="50" as="geometry" />
        </mxCell>
        <mxCell id="SECbUfsUw7zMmMJkthY5-53" value="iOT &lt;br&gt;Server" style="fontColor=#0066CC;verticalAlign=top;verticalLabelPosition=bottom;labelPosition=center;align=center;html=1;outlineConnect=0;fillColor=#CCCCCC;strokeColor=#6881B3;gradientColor=none;gradientDirection=north;strokeWidth=2;shape=mxgraph.networks.server_storage;" vertex="1" parent="1">
          <mxGeometry x="-560" y="388.75" width="75" height="57.5" as="geometry" />
        </mxCell>
        <mxCell id="SECbUfsUw7zMmMJkthY5-70" value="" style="edgeStyle=orthogonalEdgeStyle;rounded=0;orthogonalLoop=1;jettySize=auto;html=1;" edge="1" parent="1" source="SECbUfsUw7zMmMJkthY5-60" target="SECbUfsUw7zMmMJkthY5-65">
          <mxGeometry relative="1" as="geometry" />
        </mxCell>
        <mxCell id="SECbUfsUw7zMmMJkthY5-60" value="Ubiquiti -&amp;nbsp;&lt;br&gt;Access point U6 Pro&lt;br&gt;Greenhouse" style="image;points=[];aspect=fixed;html=1;align=center;shadow=0;dashed=0;image=img/lib/allied_telesis/wireless/Access_Point_Outdoor.svg;" vertex="1" parent="1">
          <mxGeometry x="160" y="687.5" width="25.8" height="99.6" as="geometry" />
        </mxCell>
        <mxCell id="SECbUfsUw7zMmMJkthY5-62" value="ESP32&lt;br&gt;temperature sensor&lt;br&gt;" style="dashed=0;outlineConnect=0;html=1;align=center;labelPosition=center;verticalLabelPosition=bottom;verticalAlign=top;shape=mxgraph.weblogos.arduino;fillColor=#36868D;strokeColor=none" vertex="1" parent="1">
          <mxGeometry x="13.329999999999984" y="850" width="67.4" height="32" as="geometry" />
        </mxCell>
        <mxCell id="SECbUfsUw7zMmMJkthY5-63" value="ESP32&lt;br&gt;temperature sensor&lt;br&gt;" style="dashed=0;outlineConnect=0;html=1;align=center;labelPosition=center;verticalLabelPosition=bottom;verticalAlign=top;shape=mxgraph.weblogos.arduino;fillColor=#36868D;strokeColor=none" vertex="1" parent="1">
          <mxGeometry x="160" y="927.5" width="67.4" height="32" as="geometry" />
        </mxCell>
        <mxCell id="SECbUfsUw7zMmMJkthY5-64" value="ESP32&lt;br&gt;temperature sensor&lt;br&gt;" style="dashed=0;outlineConnect=0;html=1;align=center;labelPosition=center;verticalLabelPosition=bottom;verticalAlign=top;shape=mxgraph.weblogos.arduino;fillColor=#36868D;strokeColor=none" vertex="1" parent="1">
          <mxGeometry x="9.999999999999972" y="927.5" width="67.4" height="32" as="geometry" />
        </mxCell>
        <mxCell id="SECbUfsUw7zMmMJkthY5-65" value="" style="html=1;verticalLabelPosition=bottom;align=center;labelBackgroundColor=#ffffff;verticalAlign=top;strokeWidth=2;strokeColor=#0080F0;shadow=0;dashed=0;shape=mxgraph.ios7.icons.wifi;pointerEvents=1;rotation=-180;" vertex="1" parent="1">
          <mxGeometry x="143.05" y="850" width="59.7" height="42.21" as="geometry" />
        </mxCell>
        <mxCell id="SECbUfsUw7zMmMJkthY5-71" value="Ubiquiti oppsett hjemme" style="text;html=1;align=center;verticalAlign=middle;resizable=0;points=[];autosize=1;strokeColor=none;fillColor=none;" vertex="1" parent="1">
          <mxGeometry x="-206.25" y="12" width="150" height="30" as="geometry" />
        </mxCell>
        <mxCell id="SECbUfsUw7zMmMJkthY5-72" value="Ubiquiti oppsett med vpn connection&lt;br&gt;til jobb i en &quot;private&quot; cloud. Drivhus mark1" style="text;html=1;align=center;verticalAlign=middle;resizable=0;points=[];autosize=1;strokeColor=none;fillColor=none;" vertex="1" parent="1">
          <mxGeometry x="-225" y="420" width="240" height="40" as="geometry" />
        </mxCell>
        <mxCell id="SECbUfsUw7zMmMJkthY5-80" style="edgeStyle=orthogonalEdgeStyle;rounded=0;orthogonalLoop=1;jettySize=auto;html=1;" edge="1" parent="1" source="SECbUfsUw7zMmMJkthY5-73" target="SECbUfsUw7zMmMJkthY5-75">
          <mxGeometry relative="1" as="geometry" />
        </mxCell>
        <mxCell id="SECbUfsUw7zMmMJkthY5-73" value="Solar panel with battery bank&lt;br&gt;2kV" style="shape=image;html=1;verticalAlign=top;verticalLabelPosition=bottom;labelBackgroundColor=#ffffff;imageAspect=0;aspect=fixed;image=https://cdn2.iconfinder.com/data/icons/business-and-education-1/512/133_Solar_Panel_Energy_technology_smart_city_technology_smart-128.png" vertex="1" parent="1">
          <mxGeometry x="-397.65" y="651" width="122" height="122" as="geometry" />
        </mxCell>
        <mxCell id="SECbUfsUw7zMmMJkthY5-74" value="" style="image;html=1;image=img/lib/clip_art/general/Battery_100_128x128.png" vertex="1" parent="1">
          <mxGeometry x="-234.65" y="674" width="80" height="80" as="geometry" />
        </mxCell>
        <mxCell id="SECbUfsUw7zMmMJkthY5-77" style="rounded=0;orthogonalLoop=1;jettySize=auto;html=1;" edge="1" parent="1" source="SECbUfsUw7zMmMJkthY5-75">
          <mxGeometry relative="1" as="geometry">
            <mxPoint x="20" y="540" as="targetPoint" />
          </mxGeometry>
        </mxCell>
        <mxCell id="SECbUfsUw7zMmMJkthY5-75" value="" style="image;html=1;image=img/lib/clip_art/general/Battery_100_128x128.png" vertex="1" parent="1">
          <mxGeometry x="-215" y="674" width="85" height="76" as="geometry" />
        </mxCell>
        <mxCell id="SECbUfsUw7zMmMJkthY5-91" style="edgeStyle=orthogonalEdgeStyle;rounded=0;orthogonalLoop=1;jettySize=auto;html=1;exitX=0.5;exitY=1;exitDx=0;exitDy=0;exitPerimeter=0;" edge="1" parent="1" source="SECbUfsUw7zMmMJkthY5-83">
          <mxGeometry relative="1" as="geometry">
            <mxPoint x="465" y="1270" as="targetPoint" />
          </mxGeometry>
        </mxCell>
        <mxCell id="SECbUfsUw7zMmMJkthY5-83" value="" style="shape=mxgraph.signs.food.drinking_water_1;html=1;pointerEvents=1;fillColor=#000000;strokeColor=none;verticalLabelPosition=bottom;verticalAlign=top;align=center;" vertex="1" parent="1">
          <mxGeometry x="440" y="1200" width="49.71" height="58" as="geometry" />
        </mxCell>
        <mxCell id="SECbUfsUw7zMmMJkthY5-92" style="edgeStyle=orthogonalEdgeStyle;rounded=0;orthogonalLoop=1;jettySize=auto;html=1;exitX=0.5;exitY=1;exitDx=0;exitDy=0;exitPerimeter=0;" edge="1" parent="1" source="SECbUfsUw7zMmMJkthY5-85">
          <mxGeometry relative="1" as="geometry">
            <mxPoint x="525" y="1270" as="targetPoint" />
          </mxGeometry>
        </mxCell>
        <mxCell id="SECbUfsUw7zMmMJkthY5-85" value="" style="shape=mxgraph.signs.food.drinking_water_1;html=1;pointerEvents=1;fillColor=#000000;strokeColor=none;verticalLabelPosition=bottom;verticalAlign=top;align=center;" vertex="1" parent="1">
          <mxGeometry x="500" y="1200" width="49.71" height="58" as="geometry" />
        </mxCell>
        <mxCell id="SECbUfsUw7zMmMJkthY5-93" style="edgeStyle=orthogonalEdgeStyle;rounded=0;orthogonalLoop=1;jettySize=auto;html=1;exitX=0.5;exitY=1;exitDx=0;exitDy=0;exitPerimeter=0;" edge="1" parent="1" source="SECbUfsUw7zMmMJkthY5-87">
          <mxGeometry relative="1" as="geometry">
            <mxPoint x="581.5" y="1270" as="targetPoint" />
          </mxGeometry>
        </mxCell>
        <mxCell id="SECbUfsUw7zMmMJkthY5-87" value="" style="shape=mxgraph.signs.food.drinking_water_1;html=1;pointerEvents=1;fillColor=#000000;strokeColor=none;verticalLabelPosition=bottom;verticalAlign=top;align=center;" vertex="1" parent="1">
          <mxGeometry x="556.52" y="1200" width="49.71" height="58" as="geometry" />
        </mxCell>
        <mxCell id="SECbUfsUw7zMmMJkthY5-94" style="edgeStyle=orthogonalEdgeStyle;rounded=0;orthogonalLoop=1;jettySize=auto;html=1;exitX=0.5;exitY=1;exitDx=0;exitDy=0;exitPerimeter=0;" edge="1" parent="1" source="SECbUfsUw7zMmMJkthY5-88">
          <mxGeometry relative="1" as="geometry">
            <mxPoint x="645" y="1270" as="targetPoint" />
          </mxGeometry>
        </mxCell>
        <mxCell id="SECbUfsUw7zMmMJkthY5-88" value="" style="shape=mxgraph.signs.food.drinking_water_1;html=1;pointerEvents=1;fillColor=#000000;strokeColor=none;verticalLabelPosition=bottom;verticalAlign=top;align=center;" vertex="1" parent="1">
          <mxGeometry x="620" y="1200" width="49.71" height="58" as="geometry" />
        </mxCell>
        <mxCell id="SECbUfsUw7zMmMJkthY5-89" value="" style="endArrow=none;html=1;rounded=0;strokeWidth=3;" edge="1" parent="1">
          <mxGeometry width="50" height="50" relative="1" as="geometry">
            <mxPoint x="430" y="1270" as="sourcePoint" />
            <mxPoint x="669.71" y="1270" as="targetPoint" />
          </mxGeometry>
        </mxCell>
        <mxCell id="SECbUfsUw7zMmMJkthY5-135" value="combined 1000l water storage" style="edgeLabel;html=1;align=center;verticalAlign=middle;resizable=0;points=[];" vertex="1" connectable="0" parent="SECbUfsUw7zMmMJkthY5-89">
          <mxGeometry x="-0.0962" relative="1" as="geometry">
            <mxPoint as="offset" />
          </mxGeometry>
        </mxCell>
        <mxCell id="SECbUfsUw7zMmMJkthY5-97" style="edgeStyle=orthogonalEdgeStyle;rounded=0;orthogonalLoop=1;jettySize=auto;html=1;strokeWidth=3;" edge="1" parent="1" source="SECbUfsUw7zMmMJkthY5-95" target="SECbUfsUw7zMmMJkthY5-82">
          <mxGeometry relative="1" as="geometry">
            <mxPoint x="740" y="1170" as="targetPoint" />
            <Array as="points">
              <mxPoint x="740" y="1269" />
            </Array>
          </mxGeometry>
        </mxCell>
        <mxCell id="SECbUfsUw7zMmMJkthY5-95" value="water pump" style="shape=mxgraph.pid.pumps.centrifugal_pump_1;html=1;pointerEvents=1;align=center;verticalLabelPosition=bottom;verticalAlign=top;dashed=0;strokeWidth=2;" vertex="1" parent="1">
          <mxGeometry x="669.71" y="1250" width="38.66" height="37" as="geometry" />
        </mxCell>
        <mxCell id="SECbUfsUw7zMmMJkthY5-98" value="" style="shape=image;html=1;verticalAlign=top;verticalLabelPosition=bottom;labelBackgroundColor=#ffffff;imageAspect=0;aspect=fixed;image=https://cdn0.iconfinder.com/data/icons/construction-2-21/512/construction-industry-building-41-128.png" vertex="1" parent="1">
          <mxGeometry x="605" y="1002" width="158" height="158" as="geometry" />
        </mxCell>
        <mxCell id="SECbUfsUw7zMmMJkthY5-99" value="" style="shape=image;html=1;verticalAlign=top;verticalLabelPosition=bottom;labelBackgroundColor=#ffffff;imageAspect=0;aspect=fixed;image=https://cdn1.iconfinder.com/data/icons/icons-for-a-site-1/64/advantage_eco_friendly-128.png" vertex="1" parent="1">
          <mxGeometry x="460" y="1076.25" width="69" height="69" as="geometry" />
        </mxCell>
        <mxCell id="SECbUfsUw7zMmMJkthY5-100" value="" style="shape=image;html=1;verticalAlign=top;verticalLabelPosition=bottom;labelBackgroundColor=#ffffff;imageAspect=0;aspect=fixed;image=https://cdn1.iconfinder.com/data/icons/icons-for-a-site-1/64/advantage_eco_friendly-128.png" vertex="1" parent="1">
          <mxGeometry x="460" y="994.75" width="69" height="69" as="geometry" />
        </mxCell>
        <mxCell id="SECbUfsUw7zMmMJkthY5-101" value="" style="shape=image;html=1;verticalAlign=top;verticalLabelPosition=bottom;labelBackgroundColor=#ffffff;imageAspect=0;aspect=fixed;image=https://cdn1.iconfinder.com/data/icons/icons-for-a-site-1/64/advantage_eco_friendly-128.png" vertex="1" parent="1">
          <mxGeometry x="460" y="914.75" width="69" height="69" as="geometry" />
        </mxCell>
        <mxCell id="SECbUfsUw7zMmMJkthY5-102" value="" style="shape=image;html=1;verticalAlign=top;verticalLabelPosition=bottom;labelBackgroundColor=#ffffff;imageAspect=0;aspect=fixed;image=https://cdn1.iconfinder.com/data/icons/icons-for-a-site-1/64/advantage_eco_friendly-128.png" vertex="1" parent="1">
          <mxGeometry x="460" y="827.75" width="69" height="69" as="geometry" />
        </mxCell>
        <mxCell id="SECbUfsUw7zMmMJkthY5-103" value="" style="shape=image;html=1;verticalAlign=top;verticalLabelPosition=bottom;labelBackgroundColor=#ffffff;imageAspect=0;aspect=fixed;image=https://cdn1.iconfinder.com/data/icons/icons-for-a-site-1/64/advantage_eco_friendly-128.png" vertex="1" parent="1">
          <mxGeometry x="460" y="744.75" width="69" height="69" as="geometry" />
        </mxCell>
        <mxCell id="SECbUfsUw7zMmMJkthY5-104" value="" style="shape=image;html=1;verticalAlign=top;verticalLabelPosition=bottom;labelBackgroundColor=#ffffff;imageAspect=0;aspect=fixed;image=https://cdn1.iconfinder.com/data/icons/icons-for-a-site-1/64/advantage_eco_friendly-128.png" vertex="1" parent="1">
          <mxGeometry x="531.43" y="1074.75" width="69" height="69" as="geometry" />
        </mxCell>
        <mxCell id="SECbUfsUw7zMmMJkthY5-105" value="" style="shape=image;html=1;verticalAlign=top;verticalLabelPosition=bottom;labelBackgroundColor=#ffffff;imageAspect=0;aspect=fixed;image=https://cdn1.iconfinder.com/data/icons/icons-for-a-site-1/64/advantage_eco_friendly-128.png" vertex="1" parent="1">
          <mxGeometry x="531.43" y="993.25" width="69" height="69" as="geometry" />
        </mxCell>
        <mxCell id="SECbUfsUw7zMmMJkthY5-106" value="" style="shape=image;html=1;verticalAlign=top;verticalLabelPosition=bottom;labelBackgroundColor=#ffffff;imageAspect=0;aspect=fixed;image=https://cdn1.iconfinder.com/data/icons/icons-for-a-site-1/64/advantage_eco_friendly-128.png" vertex="1" parent="1">
          <mxGeometry x="531.43" y="913.25" width="69" height="69" as="geometry" />
        </mxCell>
        <mxCell id="SECbUfsUw7zMmMJkthY5-107" value="" style="shape=image;html=1;verticalAlign=top;verticalLabelPosition=bottom;labelBackgroundColor=#ffffff;imageAspect=0;aspect=fixed;image=https://cdn1.iconfinder.com/data/icons/icons-for-a-site-1/64/advantage_eco_friendly-128.png" vertex="1" parent="1">
          <mxGeometry x="531.43" y="826.25" width="69" height="69" as="geometry" />
        </mxCell>
        <mxCell id="SECbUfsUw7zMmMJkthY5-108" value="" style="shape=image;html=1;verticalAlign=top;verticalLabelPosition=bottom;labelBackgroundColor=#ffffff;imageAspect=0;aspect=fixed;image=https://cdn1.iconfinder.com/data/icons/icons-for-a-site-1/64/advantage_eco_friendly-128.png" vertex="1" parent="1">
          <mxGeometry x="531.43" y="743.25" width="69" height="69" as="geometry" />
        </mxCell>
        <mxCell id="SECbUfsUw7zMmMJkthY5-109" value="" style="shape=image;html=1;verticalAlign=top;verticalLabelPosition=bottom;labelBackgroundColor=#ffffff;imageAspect=0;aspect=fixed;image=https://cdn1.iconfinder.com/data/icons/icons-for-a-site-1/64/advantage_eco_friendly-128.png" vertex="1" parent="1">
          <mxGeometry x="606.23" y="912.75" width="69" height="69" as="geometry" />
        </mxCell>
        <mxCell id="SECbUfsUw7zMmMJkthY5-110" value="" style="shape=image;html=1;verticalAlign=top;verticalLabelPosition=bottom;labelBackgroundColor=#ffffff;imageAspect=0;aspect=fixed;image=https://cdn1.iconfinder.com/data/icons/icons-for-a-site-1/64/advantage_eco_friendly-128.png" vertex="1" parent="1">
          <mxGeometry x="606.23" y="825.75" width="69" height="69" as="geometry" />
        </mxCell>
        <mxCell id="SECbUfsUw7zMmMJkthY5-111" value="" style="shape=image;html=1;verticalAlign=top;verticalLabelPosition=bottom;labelBackgroundColor=#ffffff;imageAspect=0;aspect=fixed;image=https://cdn1.iconfinder.com/data/icons/icons-for-a-site-1/64/advantage_eco_friendly-128.png" vertex="1" parent="1">
          <mxGeometry x="606.23" y="742.75" width="69" height="69" as="geometry" />
        </mxCell>
        <mxCell id="SECbUfsUw7zMmMJkthY5-112" value="" style="shape=image;html=1;verticalAlign=top;verticalLabelPosition=bottom;labelBackgroundColor=#ffffff;imageAspect=0;aspect=fixed;image=https://cdn1.iconfinder.com/data/icons/icons-for-a-site-1/64/advantage_eco_friendly-128.png" vertex="1" parent="1">
          <mxGeometry x="675.23" y="912.75" width="69" height="69" as="geometry" />
        </mxCell>
        <mxCell id="SECbUfsUw7zMmMJkthY5-113" value="" style="shape=image;html=1;verticalAlign=top;verticalLabelPosition=bottom;labelBackgroundColor=#ffffff;imageAspect=0;aspect=fixed;image=https://cdn1.iconfinder.com/data/icons/icons-for-a-site-1/64/advantage_eco_friendly-128.png" vertex="1" parent="1">
          <mxGeometry x="675.23" y="825.75" width="69" height="69" as="geometry" />
        </mxCell>
        <mxCell id="SECbUfsUw7zMmMJkthY5-114" value="" style="shape=image;html=1;verticalAlign=top;verticalLabelPosition=bottom;labelBackgroundColor=#ffffff;imageAspect=0;aspect=fixed;image=https://cdn1.iconfinder.com/data/icons/icons-for-a-site-1/64/advantage_eco_friendly-128.png" vertex="1" parent="1">
          <mxGeometry x="675.23" y="742.75" width="69" height="69" as="geometry" />
        </mxCell>
        <mxCell id="SECbUfsUw7zMmMJkthY5-117" style="edgeStyle=orthogonalEdgeStyle;rounded=0;orthogonalLoop=1;jettySize=auto;html=1;entryX=0.504;entryY=0.016;entryDx=0;entryDy=0;entryPerimeter=0;strokeWidth=3;" edge="1" parent="1" source="SECbUfsUw7zMmMJkthY5-115" target="SECbUfsUw7zMmMJkthY5-83">
          <mxGeometry relative="1" as="geometry">
            <Array as="points">
              <mxPoint x="370" y="1180" />
              <mxPoint x="465" y="1180" />
            </Array>
          </mxGeometry>
        </mxCell>
        <mxCell id="SECbUfsUw7zMmMJkthY5-115" value="ESP32&lt;br&gt;Water level sensor" style="dashed=0;outlineConnect=0;html=1;align=center;labelPosition=center;verticalLabelPosition=bottom;verticalAlign=top;shape=mxgraph.weblogos.arduino;fillColor=#36868D;strokeColor=none" vertex="1" parent="1">
          <mxGeometry x="335.93" y="1200" width="67.4" height="32" as="geometry" />
        </mxCell>
        <mxCell id="SECbUfsUw7zMmMJkthY5-126" style="rounded=0;orthogonalLoop=1;jettySize=auto;html=1;entryX=1.004;entryY=0.556;entryDx=0;entryDy=0;entryPerimeter=0;" edge="1" parent="1" source="SECbUfsUw7zMmMJkthY5-119" target="SECbUfsUw7zMmMJkthY5-82">
          <mxGeometry relative="1" as="geometry" />
        </mxCell>
        <mxCell id="SECbUfsUw7zMmMJkthY5-119" value="ESP32&lt;br&gt;temperature sensor&lt;br&gt;" style="dashed=0;outlineConnect=0;html=1;align=center;labelPosition=center;verticalLabelPosition=bottom;verticalAlign=top;shape=mxgraph.weblogos.arduino;fillColor=#36868D;strokeColor=none" vertex="1" parent="1">
          <mxGeometry x="870" y="983.75" width="67.4" height="32" as="geometry" />
        </mxCell>
        <mxCell id="SECbUfsUw7zMmMJkthY5-122" style="rounded=0;orthogonalLoop=1;jettySize=auto;html=1;entryX=1;entryY=0.5;entryDx=0;entryDy=0;" edge="1" parent="1" source="SECbUfsUw7zMmMJkthY5-120" target="SECbUfsUw7zMmMJkthY5-82">
          <mxGeometry relative="1" as="geometry" />
        </mxCell>
        <mxCell id="SECbUfsUw7zMmMJkthY5-120" value="ESP32&lt;br&gt;hydrometer sensor" style="dashed=0;outlineConnect=0;html=1;align=center;labelPosition=center;verticalLabelPosition=bottom;verticalAlign=top;shape=mxgraph.weblogos.arduino;fillColor=#36868D;strokeColor=none" vertex="1" parent="1">
          <mxGeometry x="870" y="892.21" width="67.4" height="32" as="geometry" />
        </mxCell>
        <mxCell id="SECbUfsUw7zMmMJkthY5-127" value="" style="verticalLabelPosition=bottom;outlineConnect=0;align=center;dashed=0;html=1;verticalAlign=top;shape=mxgraph.pid.misc.fan;fillColor=#f5f5f5;fontColor=#333333;strokeColor=#666666;" vertex="1" parent="1">
          <mxGeometry x="780" y="730" width="57" height="57" as="geometry" />
        </mxCell>
        <mxCell id="SECbUfsUw7zMmMJkthY5-129" value="" style="verticalLabelPosition=bottom;outlineConnect=0;align=center;dashed=0;html=1;verticalAlign=top;shape=mxgraph.pid.misc.fan;fillColor=#f5f5f5;fontColor=#333333;strokeColor=#666666;" vertex="1" parent="1">
          <mxGeometry x="780" y="800" width="57" height="57" as="geometry" />
        </mxCell>
        <mxCell id="SECbUfsUw7zMmMJkthY5-131" style="edgeStyle=orthogonalEdgeStyle;rounded=0;orthogonalLoop=1;jettySize=auto;html=1;" edge="1" parent="1" source="SECbUfsUw7zMmMJkthY5-130" target="SECbUfsUw7zMmMJkthY5-127">
          <mxGeometry relative="1" as="geometry" />
        </mxCell>
        <mxCell id="SECbUfsUw7zMmMJkthY5-132" style="edgeStyle=orthogonalEdgeStyle;rounded=0;orthogonalLoop=1;jettySize=auto;html=1;" edge="1" parent="1" source="SECbUfsUw7zMmMJkthY5-130" target="SECbUfsUw7zMmMJkthY5-129">
          <mxGeometry relative="1" as="geometry" />
        </mxCell>
        <mxCell id="SECbUfsUw7zMmMJkthY5-130" value="ESP32&lt;br&gt;relay box" style="dashed=0;outlineConnect=0;html=1;align=center;labelPosition=center;verticalLabelPosition=bottom;verticalAlign=top;shape=mxgraph.weblogos.arduino;fillColor=#36868D;strokeColor=none" vertex="1" parent="1">
          <mxGeometry x="880" y="773" width="67.4" height="32" as="geometry" />
        </mxCell>
        <mxCell id="SECbUfsUw7zMmMJkthY5-134" style="rounded=0;orthogonalLoop=1;jettySize=auto;html=1;" edge="1" parent="1" source="SECbUfsUw7zMmMJkthY5-133">
          <mxGeometry relative="1" as="geometry">
            <mxPoint x="720" y="1280" as="targetPoint" />
          </mxGeometry>
        </mxCell>
        <mxCell id="SECbUfsUw7zMmMJkthY5-133" value="ESP32&lt;br&gt;replay box" style="dashed=0;outlineConnect=0;html=1;align=center;labelPosition=center;verticalLabelPosition=bottom;verticalAlign=top;shape=mxgraph.weblogos.arduino;fillColor=#36868D;strokeColor=none" vertex="1" parent="1">
          <mxGeometry x="790" y="1287" width="67.4" height="32" as="geometry" />
        </mxCell>
        <mxCell id="SECbUfsUw7zMmMJkthY5-138" style="edgeStyle=orthogonalEdgeStyle;rounded=0;orthogonalLoop=1;jettySize=auto;html=1;startArrow=classic;startFill=1;endArrow=none;endFill=0;" edge="1" parent="1" source="SECbUfsUw7zMmMJkthY5-136">
          <mxGeometry relative="1" as="geometry">
            <mxPoint x="473.33500000000004" y="530" as="targetPoint" />
          </mxGeometry>
        </mxCell>
        <mxCell id="SECbUfsUw7zMmMJkthY5-142" style="edgeStyle=orthogonalEdgeStyle;rounded=0;orthogonalLoop=1;jettySize=auto;html=1;" edge="1" parent="1" source="SECbUfsUw7zMmMJkthY5-136" target="SECbUfsUw7zMmMJkthY5-141">
          <mxGeometry relative="1" as="geometry" />
        </mxCell>
        <mxCell id="SECbUfsUw7zMmMJkthY5-143" value="PoE" style="edgeLabel;html=1;align=center;verticalAlign=middle;resizable=0;points=[];" vertex="1" connectable="0" parent="SECbUfsUw7zMmMJkthY5-142">
          <mxGeometry x="0.0928" relative="1" as="geometry">
            <mxPoint as="offset" />
          </mxGeometry>
        </mxCell>
        <mxCell id="SECbUfsUw7zMmMJkthY5-136" value="Ubiquiti -&amp;nbsp;&lt;br&gt;Switch Flex Mini" style="fontColor=#0066CC;verticalAlign=top;verticalLabelPosition=bottom;labelPosition=center;align=center;html=1;outlineConnect=0;fillColor=#CCCCCC;strokeColor=#6881B3;gradientColor=none;gradientDirection=north;strokeWidth=2;shape=mxgraph.networks.switch;" vertex="1" parent="1">
          <mxGeometry x="440" y="654" width="66.67" height="20" as="geometry" />
        </mxCell>
        <mxCell id="SECbUfsUw7zMmMJkthY5-141" value="Ubiquti -&amp;nbsp;&lt;br&gt;Camera G4 Pro" style="fontColor=#0066CC;verticalAlign=top;verticalLabelPosition=bottom;labelPosition=center;align=center;html=1;outlineConnect=0;fillColor=#CCCCCC;strokeColor=#6881B3;gradientColor=none;gradientDirection=north;strokeWidth=2;shape=mxgraph.networks.security_camera;" vertex="1" parent="1">
          <mxGeometry x="390" y="765" width="46.67" height="35" as="geometry" />
        </mxCell>
        <mxCell id="SECbUfsUw7zMmMJkthY5-147" style="edgeStyle=orthogonalEdgeStyle;rounded=0;orthogonalLoop=1;jettySize=auto;html=1;entryX=0.5;entryY=0;entryDx=0;entryDy=0;" edge="1" parent="1" source="SECbUfsUw7zMmMJkthY5-144" target="SECbUfsUw7zMmMJkthY5-148">
          <mxGeometry relative="1" as="geometry">
            <mxPoint x="405" y="1579" as="targetPoint" />
          </mxGeometry>
        </mxCell>
        <mxCell id="SECbUfsUw7zMmMJkthY5-144" value="Water level&lt;br&gt;controller" style="shape=process;whiteSpace=wrap;html=1;backgroundOutline=1;" vertex="1" parent="1">
          <mxGeometry x="345" y="1452" width="120" height="57" as="geometry" />
        </mxCell>
        <mxCell id="SECbUfsUw7zMmMJkthY5-146" style="edgeStyle=orthogonalEdgeStyle;rounded=0;orthogonalLoop=1;jettySize=auto;html=1;entryX=0.5;entryY=0;entryDx=0;entryDy=0;" edge="1" parent="1" source="SECbUfsUw7zMmMJkthY5-145" target="SECbUfsUw7zMmMJkthY5-144">
          <mxGeometry relative="1" as="geometry" />
        </mxCell>
        <mxCell id="SECbUfsUw7zMmMJkthY5-145" value="Controller &lt;br&gt;telemetry" style="rounded=1;whiteSpace=wrap;html=1;" vertex="1" parent="1">
          <mxGeometry x="345" y="1330" width="120" height="60" as="geometry" />
        </mxCell>
        <mxCell id="SECbUfsUw7zMmMJkthY5-155" style="edgeStyle=orthogonalEdgeStyle;rounded=0;orthogonalLoop=1;jettySize=auto;html=1;" edge="1" parent="1" source="SECbUfsUw7zMmMJkthY5-148" target="SECbUfsUw7zMmMJkthY5-156">
          <mxGeometry relative="1" as="geometry">
            <mxPoint x="405" y="1759" as="targetPoint" />
          </mxGeometry>
        </mxCell>
        <mxCell id="SECbUfsUw7zMmMJkthY5-157" style="edgeStyle=orthogonalEdgeStyle;rounded=0;orthogonalLoop=1;jettySize=auto;html=1;entryX=0;entryY=0.5;entryDx=0;entryDy=0;" edge="1" parent="1" source="SECbUfsUw7zMmMJkthY5-148">
          <mxGeometry relative="1" as="geometry">
            <mxPoint x="524" y="1600.25" as="targetPoint" />
          </mxGeometry>
        </mxCell>
        <mxCell id="SECbUfsUw7zMmMJkthY5-158" value="No" style="edgeLabel;html=1;align=center;verticalAlign=middle;resizable=0;points=[];" vertex="1" connectable="0" parent="SECbUfsUw7zMmMJkthY5-157">
          <mxGeometry x="-0.3129" relative="1" as="geometry">
            <mxPoint as="offset" />
          </mxGeometry>
        </mxCell>
        <mxCell id="SECbUfsUw7zMmMJkthY5-148" value="Check&amp;nbsp;&lt;br&gt;water level" style="rhombus;whiteSpace=wrap;html=1;" vertex="1" parent="1">
          <mxGeometry x="359.5" y="1561" width="91" height="80" as="geometry" />
        </mxCell>
        <mxCell id="SECbUfsUw7zMmMJkthY5-153" style="edgeStyle=elbowEdgeStyle;rounded=0;orthogonalLoop=1;jettySize=auto;html=1;elbow=vertical;" edge="1" parent="1">
          <mxGeometry relative="1" as="geometry">
            <mxPoint x="474" y="1479" as="targetPoint" />
            <mxPoint x="584" y="1579" as="sourcePoint" />
            <Array as="points">
              <mxPoint x="584" y="1479" />
              <mxPoint x="574" y="1499" />
            </Array>
          </mxGeometry>
        </mxCell>
        <mxCell id="SECbUfsUw7zMmMJkthY5-156" value="End" style="rounded=1;whiteSpace=wrap;html=1;" vertex="1" parent="1">
          <mxGeometry x="345" y="1729" width="120" height="60" as="geometry" />
        </mxCell>
        <mxCell id="SECbUfsUw7zMmMJkthY5-160" value="Replenish&lt;br&gt;water level" style="shape=process;whiteSpace=wrap;html=1;backgroundOutline=1;" vertex="1" parent="1">
          <mxGeometry x="524" y="1571" width="120" height="60" as="geometry" />
        </mxCell>
      </root>
    </mxGraphModel>
  </diagram>
</mxfile>
